<svg width="21" height="23" viewBox="0 0 21 23" fill="none" xmlns="http://www.w3.org/2000/svg">
<path d="M16.4417 7.74909C16.2712 7.24681 15.9474 6.81064 15.516 6.50199C15.0846 6.19334 14.5673 6.02774 14.0368 6.0285H11.9998V0L11.1437 0.122297C9.2017 0.399703 7.689 1.3838 6.64805 3.0473C5.89753 4.24641 5.54864 5.56917 5.38673 6.55852C4.26891 7.41858 3.29644 8.60278 2.49277 10.0835C1.81547 11.3312 1.2548 12.7936 0.826266 14.4302C0.102188 17.1953 0.00417194 19.489 0.000375062 19.5853L0 22.2397H1.49977V19.6318C1.51852 19.246 1.99083 10.8029 6.51689 7.58794L6.7822 7.39945L6.8258 7.07691C7.0515 5.40694 7.8315 2.64872 10.4998 1.80089V7.5285H14.0368C14.2537 7.52785 14.4653 7.59522 14.6419 7.72114C14.8185 7.84705 14.9511 8.02516 15.0212 8.23041C15.6192 9.99553 16.6467 12.2043 18.248 13.2423L17.7664 15.0483C17.5988 15.6924 17.2175 16.2605 16.6849 16.6596C16.1524 17.0587 15.5001 17.2652 14.8349 17.2454C13.491 17.205 12.0924 17.3804 10.6776 17.7662L10.1248 17.9169V22.2397H11.6248V19.0742C12.6613 18.8293 13.725 18.7185 14.7898 18.7447C15.7925 18.7723 16.7752 18.4604 17.5785 17.8597C18.3818 17.2589 18.9587 16.4045 19.2156 15.4348L20.0166 12.431L19.4201 12.1754C18.3045 11.6972 17.2468 10.1253 16.4417 7.74909Z" fill="#7E8089"/>
</svg>
