<svg width="23" height="21" viewBox="0 0 23 21" fill="none" xmlns="http://www.w3.org/2000/svg">
<path d="M17.6859 5.02336L14.9312 1.04405C14.727 0.749731 14.4556 0.50831 14.1396 0.339788C13.8235 0.171266 13.4718 0.080496 13.1136 0.0749999L7.88578 0H7.875C5.17598 0 3.10514 0.451453 1.77141 2.65472C0.529688 4.70559 0 8.19914 0 14.336V15.086H1.71361L0.6105 20.711H2.13909L3.2422 15.086H3.75C4.97492 15.0969 6.155 14.6256 7.03537 13.7739C7.83127 13.0124 8.40534 11.9705 8.69564 10.761L8.69827 10.7502L9.98466 4.58602H8.45231L7.23455 10.4214C6.86367 11.9533 5.75466 13.586 3.75 13.586H1.50281C1.54355 8.27667 2.02697 5.12887 3.05461 3.4313C3.91711 2.0063 5.17781 1.50047 7.8698 1.49977L13.092 1.57477C13.2114 1.57658 13.3287 1.60683 13.434 1.66301C13.5394 1.71918 13.6299 1.79966 13.6979 1.89778L16.8141 6.39867L21 7.09636V7.89131L20.3019 11.6142C20.0959 12.713 19.7438 13.2665 18.2995 13.44L12.3789 14.4529L12.3398 20.711H13.8398L13.8711 15.7192L18.4976 14.927C19.5457 14.7981 20.319 14.4603 20.8613 13.8946C21.3249 13.411 21.6071 12.7931 21.7763 11.8906L22.5 8.03072V5.82567L17.6859 5.02336Z" fill="#7E8089"/>
</svg>
