<svg width="288" height="288" viewBox="0 0 288 288" fill="none" xmlns="http://www.w3.org/2000/svg">
<path d="M112.334 268.046C119.124 261.216 124.324 252.971 127.56 243.9C130.796 234.829 131.99 225.155 131.056 215.569L131.397 215.892C130.443 204.604 131.966 193.244 135.857 182.605C139.749 171.967 145.916 162.306 153.928 154.297C161.94 146.289 171.603 140.126 182.244 136.239C192.884 132.352 204.244 130.834 215.532 131.792L215.192 131.47C228.687 132.734 242.243 129.805 254.012 123.082C265.782 116.359 275.191 106.17 280.957 93.9032C286.723 81.6367 288.565 67.8903 286.231 54.5385C283.898 41.1868 277.504 28.8796 267.919 19.2954C258.335 9.71123 246.028 3.31654 232.676 0.983399C219.325 -1.34974 205.578 0.492256 193.312 6.25817C181.045 12.0241 170.856 21.4332 164.133 33.2025C157.41 44.9718 154.481 58.5283 155.745 72.0233L155.423 71.7008C156.375 82.9854 154.854 94.342 150.964 104.978C147.075 115.614 140.911 125.273 132.903 133.281C124.895 141.288 115.236 147.452 104.6 151.342C93.9644 155.231 82.6078 156.753 71.3232 155.8L71.6457 156.123C60.6194 155.134 49.522 156.944 39.3816 161.386C29.2413 165.828 20.3862 172.757 13.637 181.533C6.88768 190.308 2.46257 200.645 0.771704 211.585C-0.91916 222.526 0.178917 233.716 3.96419 244.119C7.74946 254.523 14.0995 263.802 22.4257 271.098C30.752 278.394 40.7852 283.47 51.5955 285.856C62.4058 288.242 73.6435 287.861 84.2672 284.747C94.8909 281.634 104.557 275.89 112.37 268.046H112.334Z" fill="#FF5B0F"/>
</svg>
