<svg width="444" height="444" viewBox="0 0 444 444" fill="none" xmlns="http://www.w3.org/2000/svg">
<path d="M216.409 288.001L216.069 287.679C225.66 288.645 235.346 287.468 244.426 284.232C253.507 280.997 261.755 275.784 268.574 268.97C275.393 262.156 280.612 253.912 283.854 244.834C287.097 235.756 288.281 226.071 287.322 216.479L287.663 216.802C286.71 205.517 288.232 194.16 292.121 183.524C296.011 172.889 302.174 163.23 310.182 155.222C318.19 147.214 327.849 141.05 338.485 137.161C349.121 133.271 360.477 131.75 371.762 132.702L371.422 132.38C384.921 133.647 398.483 130.72 410.258 123.997C422.033 117.273 431.447 107.081 437.216 94.8109C442.986 82.5406 444.829 68.7892 442.496 55.4324C440.163 42.0757 433.766 29.7638 424.179 20.1761C414.591 10.5885 402.279 4.19176 388.922 1.85852C375.566 -0.474715 361.814 1.36909 349.544 7.13849C337.273 12.9079 327.082 22.322 320.358 34.0967C313.635 45.8714 310.707 59.4335 311.975 72.9331L311.653 72.5927C312.608 83.8781 311.089 95.236 307.201 105.873C303.312 116.511 297.148 126.171 289.14 134.179C281.131 142.188 271.471 148.352 260.834 152.24C250.197 156.129 238.839 157.648 227.553 156.692L227.876 157.033C218.285 156.066 208.599 157.243 199.518 160.479C190.438 163.714 182.19 168.928 175.371 175.741C168.552 182.555 163.333 190.799 160.09 199.877C156.848 208.955 155.663 218.64 156.622 228.232L156.3 227.91C157.249 239.194 155.726 250.549 151.835 261.183C147.944 271.818 141.78 281.475 133.773 289.482C125.766 297.49 116.108 303.653 105.474 307.544C94.8396 311.435 83.4844 312.959 72.2005 312.009L72.5229 312.332C59.0233 311.064 45.4612 313.991 33.6865 320.715C21.9118 327.438 12.4977 337.63 6.7283 349.9C0.958896 362.171 -0.884939 375.922 1.4483 389.279C3.78154 402.636 10.1783 414.947 19.766 424.535C29.3536 434.123 41.6655 440.52 55.0223 442.853C68.3791 445.186 82.1304 443.342 94.4008 437.573C106.671 431.803 116.863 422.389 123.586 410.615C130.31 398.84 133.237 385.278 131.969 371.778L132.31 372.101C131.357 360.816 132.879 349.459 136.768 338.823C140.658 328.188 146.822 318.529 154.83 310.521C162.837 302.513 172.496 296.349 183.132 292.46C193.768 288.57 205.125 287.049 216.409 288.001Z" fill="#FF5B0F"/>
</svg>
